<svg width="90" height="81" viewBox="0 0 90 81" fill="none" xmlns="http://www.w3.org/2000/svg">
<rect width="90" height="81" fill="#D9D9D9"/>
<path d="M22.5 60.75C27.8933 60.0293 32.8189 57.5874 36.3781 53.8699C39.9372 50.1524 41.8926 45.4072 41.8875 40.5C41.9146 34.3401 44.3975 28.3935 48.8846 23.742C53.3717 19.0904 59.5648 16.0429 66.3375 15.1537L76.05 13.905C75.7875 13.635 75.5625 13.365 75.2625 13.095C63.0375 2.09249 39.5625 5.39999 22.7625 20.4525C8.55 33.4125 3.75 50.625 10.35 62.3025L22.5 60.75Z" fill="#6F5946"/>
<path d="M47.7375 40.5C47.713 46.6587 45.2367 52.6057 40.7578 57.2621C36.2789 61.9185 30.094 64.976 23.325 65.88L14.1 67.0612L14.6625 67.635C26.8875 78.6375 50.3625 75.3637 67.1625 60.3112C81.3 47.6212 86.25 30.375 79.6875 18.8662L67.1625 20.4862C61.8036 21.1868 56.8999 23.5894 53.3374 27.2599C49.7749 30.9303 47.7887 35.6266 47.7375 40.5Z" fill="#6F5946"/>
</svg>
