<svg width="426" height="39" viewBox="0 0 426 39" fill="none" xmlns="http://www.w3.org/2000/svg">
<path d="M23.232 33.344C22.56 34.016 21.488 34.736 20.016 35.504C18.576 36.272 16.992 36.928 15.264 37.472C13.568 37.984 11.984 38.24 10.512 38.24C9.392 38.24 8.064 37.728 6.528 36.704C4.992 35.648 3.664 34.4 2.544 32.96C1.456 31.52 0.912 30.24 0.912 29.12C0.944 25.696 1.52 22.016 2.64 18.08C3.792 14.144 5.504 10.8 7.776 8.048C10.08 5.296 12.848 3.92 16.08 3.92C17.776 3.92 19.344 4.4 20.784 5.36C22.256 6.32 23.408 7.504 24.24 8.912C25.072 10.32 25.488 11.648 25.488 12.896C25.52 14.208 25.072 15.216 24.144 15.92C23.216 16.592 22.048 16.928 20.64 16.928C19.616 16.928 18.592 16.736 17.568 16.352C17.6 15.776 17.616 14.96 17.616 13.904C17.616 12.72 17.52 11.84 17.328 11.264C17.136 10.688 16.768 10.4 16.224 10.4C15.136 10.4 14.016 11.52 12.864 13.76C11.744 16 10.784 18.752 9.984 22.016C9.216 25.28 8.8 28.272 8.736 30.992C10.848 30.608 12.784 29.984 14.544 29.12C16.336 28.224 17.904 27.2 19.248 26.048C20.688 26.4 21.792 27.056 22.56 28.016C23.36 28.944 23.76 29.984 23.76 31.136C23.76 31.84 23.584 32.576 23.232 33.344ZM58.794 30.944C60.746 29.984 62.394 28.96 63.738 27.872C65.146 28.352 66.186 29.024 66.858 29.888C67.562 30.72 67.914 31.68 67.914 32.768C67.914 33.536 67.37 34.336 66.282 35.168C65.194 35.968 63.898 36.64 62.394 37.184C60.89 37.728 59.61 38 58.554 38C57.818 38 56.97 37.728 56.01 37.184C55.082 36.64 54.266 36 53.562 35.264C52.89 34.528 52.554 33.952 52.554 33.536C52.554 33.216 52.682 32.784 52.938 32.24C53.226 31.696 53.53 31.136 53.85 30.56C54.17 29.984 54.378 29.6 54.474 29.408L53.274 28.736C51.578 31.52 49.946 33.76 48.378 35.456C46.842 37.152 45.322 38 43.818 38C42.794 38 41.706 37.552 40.554 36.656C39.434 35.76 38.474 34.672 37.674 33.392C36.906 32.112 36.522 30.976 36.522 29.984C36.522 27.136 37.114 24.224 38.298 21.248C39.482 18.272 41.13 15.808 43.242 13.856C45.386 11.904 47.802 10.928 50.49 10.928C51.45 10.928 52.426 11.36 53.418 12.224C54.41 13.088 55.05 13.968 55.338 14.864C55.498 14.16 55.722 13.552 56.01 13.04C56.33 12.496 56.666 12.224 57.018 12.224C57.85 12.224 58.762 12.528 59.754 13.136C60.778 13.712 61.642 14.4 62.346 15.2C63.05 15.968 63.402 16.576 63.402 17.024C63.37 17.632 63.114 18.64 62.634 20.048C62.186 21.456 61.45 23.6 60.426 26.48C59.818 28.048 59.274 29.536 58.794 30.944ZM44.058 31.328C46.65 29.728 48.906 27.76 50.826 25.424C52.746 23.056 54.058 20.448 54.762 17.6C53.898 17.216 53.082 17.024 52.314 17.024C50.81 17.024 49.466 17.696 48.282 19.04C47.098 20.384 46.154 22.144 45.45 24.32C44.746 26.496 44.282 28.832 44.058 31.328ZM88.0354 38C87.1714 38 86.2114 37.76 85.1554 37.28C84.0994 36.8 83.2034 36.224 82.4674 35.552C81.7634 34.88 81.4114 34.288 81.4114 33.776C81.4114 33.2 81.6034 32.336 81.9874 31.184C82.4034 30 82.9954 28.432 83.7634 26.48L85.0114 23.168L81.4114 23.744C80.8674 23.456 80.4354 23.024 80.1154 22.448C79.7954 21.872 79.6354 21.248 79.6354 20.576C79.6354 19.968 79.7474 19.392 79.9714 18.848C80.2274 18.272 80.5954 17.792 81.0754 17.408C81.8434 17.44 83.0434 17.424 84.6754 17.36L86.2594 17.312C85.7474 13.408 85.4914 10.432 85.4914 8.384C85.4914 6.944 85.6034 5.84 85.8274 5.072C86.0194 4.496 86.5154 3.872 87.3154 3.2C88.1474 2.528 89.0914 1.968 90.1474 1.52C91.2354 1.04 92.2594 0.799998 93.2194 0.799998C94.8834 0.799998 96.4194 1.152 97.8274 1.856C99.2674 2.528 100.403 3.424 101.235 4.544C102.067 5.632 102.483 6.736 102.483 7.856C102.483 9.072 102.051 10.064 101.187 10.832C100.323 11.568 99.2034 11.936 97.8274 11.936C97.3154 11.936 96.6914 11.856 95.9554 11.696C95.6034 9.392 94.7714 7.68 93.4594 6.56C92.9474 8.544 92.5474 10.256 92.2594 11.696C92.0034 13.136 91.8594 14.848 91.8274 16.832C93.4914 16.608 95.6194 16.192 98.2114 15.584C98.7874 16 99.2194 16.512 99.5074 17.12C99.8274 17.696 99.9874 18.32 99.9874 18.992C99.9874 20.016 99.6194 21.024 98.8834 22.016C98.2434 22.08 97.2834 22.144 96.0034 22.208L91.1074 22.592C90.9154 24.064 90.7874 25.264 90.7234 26.192C90.3074 30.16 89.9074 33.12 89.5234 35.072C89.1714 37.024 88.6754 38 88.0354 38ZM121.406 38C119.87 38 118.27 37.504 116.606 36.512C114.942 35.488 113.566 34.24 112.478 32.768C111.39 31.296 110.846 29.904 110.846 28.592C110.846 26.256 111.39 23.696 112.478 20.912C113.598 18.128 115.134 15.776 117.086 13.856C119.038 11.904 121.246 10.928 123.71 10.928C125.47 10.928 127.054 11.312 128.462 12.08C129.902 12.848 131.022 13.808 131.822 14.96C132.622 16.112 133.022 17.232 133.022 18.32C133.022 19.664 132.414 20.992 131.198 22.304C129.982 23.584 128.286 24.72 126.11 25.712C123.934 26.672 121.454 27.36 118.67 27.776C118.638 28.16 118.622 28.736 118.622 29.504C118.622 30.464 118.654 31.184 118.718 31.664C120.318 31.504 121.902 31.072 123.47 30.368C125.038 29.664 126.75 28.672 128.606 27.392C129.854 27.776 130.798 28.384 131.438 29.216C132.078 30.048 132.398 31.04 132.398 32.192C132.398 33.152 131.806 34.096 130.622 35.024C129.47 35.92 128.03 36.64 126.302 37.184C124.574 37.728 122.942 38 121.406 38ZM119.39 24.176C121.342 23.472 122.974 22.576 124.286 21.488C125.598 20.4 126.254 19.472 126.254 18.704C126.254 17.808 125.63 17.2 124.382 16.88C123.166 17.776 122.126 18.848 121.262 20.096C120.43 21.344 119.806 22.704 119.39 24.176ZM159.831 16.64C158.391 17.728 157.223 18.8 156.327 19.856C155.463 20.912 155.031 21.808 155.031 22.544C155.031 22.896 155.335 23.264 155.943 23.648C156.551 24 157.559 24.496 158.967 25.136C161.207 26.16 162.967 27.12 164.247 28.016C165.527 28.88 166.167 29.888 166.167 31.04C166.167 32.192 165.511 33.312 164.199 34.4C162.919 35.456 161.319 36.32 159.399 36.992C157.479 37.664 155.687 38 154.023 38C152.775 38 151.463 37.744 150.087 37.232C148.711 36.688 147.559 36.016 146.631 35.216C145.703 34.384 145.239 33.6 145.239 32.864C145.239 31.552 145.655 30.512 146.487 29.744C147.351 28.944 148.471 28.544 149.847 28.544C150.487 28.544 151.143 28.64 151.815 28.832C152.359 30.56 152.823 31.792 153.207 32.528C155.159 32.016 156.903 31.152 158.439 29.936C155.751 28.784 153.287 27.488 151.047 26.048C148.839 24.608 147.735 23.264 147.735 22.016C147.735 20.736 148.327 19.216 149.511 17.456C150.695 15.664 152.199 14.128 154.023 12.848C155.879 11.536 157.767 10.88 159.687 10.88C160.999 10.88 162.247 11.264 163.431 12.032C164.647 12.8 165.623 13.76 166.359 14.912C167.095 16.064 167.463 17.184 167.463 18.272C167.463 19.328 167.047 20.192 166.215 20.864C165.415 21.504 164.391 21.824 163.143 21.824C162.343 21.824 161.527 21.664 160.695 21.344C160.631 20.064 160.343 18.496 159.831 16.64ZM219.845 4.4C220.357 4.4 221.061 4.688 221.957 5.264C222.853 5.84 223.653 6.512 224.357 7.28C225.061 8.048 225.413 8.656 225.413 9.104C225.381 9.936 224.837 12.48 223.781 16.736L222.773 21.056L222.293 23.504C221.717 26.416 221.237 28.688 220.853 30.32C220.501 31.952 220.165 33.04 219.845 33.584C219.461 34.256 218.757 34.944 217.733 35.648C216.709 36.32 215.557 36.88 214.277 37.328C213.029 37.776 211.845 38 210.725 38C209.573 38 208.213 37.52 206.645 36.56C205.109 35.568 203.781 34.304 202.661 32.768C201.573 31.232 201.029 29.664 201.029 28.064C201.029 26.56 201.525 25.376 202.517 24.512C203.541 23.616 204.709 23.168 206.021 23.168C207.205 23.168 208.181 23.488 208.949 24.128C208.917 24.448 208.901 24.912 208.901 25.52C208.901 26.672 209.013 27.776 209.237 28.832C209.461 29.856 209.765 30.672 210.149 31.28C210.533 31.888 210.917 32.192 211.301 32.192C212.101 32.192 212.869 31.136 213.605 29.024C214.373 26.88 215.045 24.224 215.621 21.056C215.845 19.84 216.117 18.48 216.437 16.976C216.981 14.416 217.317 12.56 217.445 11.408C216.037 11.6 214.901 11.728 214.037 11.792C213.685 11.824 212.949 11.904 211.829 12.032C210.709 12.128 209.701 12.272 208.805 12.464C208.101 12.144 207.541 11.648 207.125 10.976C206.741 10.272 206.549 9.504 206.549 8.672C206.549 7.584 206.869 6.608 207.509 5.744C209.397 5.264 211.461 4.928 213.701 4.736C215.973 4.512 218.021 4.4 219.845 4.4ZM246.196 38C244.66 38 243.06 37.504 241.396 36.512C239.732 35.488 238.356 34.24 237.268 32.768C236.18 31.296 235.636 29.904 235.636 28.592C235.636 26.256 236.18 23.696 237.268 20.912C238.388 18.128 239.924 15.776 241.876 13.856C243.828 11.904 246.036 10.928 248.5 10.928C250.26 10.928 251.844 11.312 253.252 12.08C254.692 12.848 255.812 13.808 256.612 14.96C257.412 16.112 257.812 17.232 257.812 18.32C257.812 19.664 257.204 20.992 255.988 22.304C254.772 23.584 253.076 24.72 250.9 25.712C248.724 26.672 246.244 27.36 243.46 27.776C243.428 28.16 243.412 28.736 243.412 29.504C243.412 30.464 243.444 31.184 243.508 31.664C245.108 31.504 246.692 31.072 248.26 30.368C249.828 29.664 251.54 28.672 253.396 27.392C254.644 27.776 255.588 28.384 256.228 29.216C256.868 30.048 257.188 31.04 257.188 32.192C257.188 33.152 256.596 34.096 255.412 35.024C254.26 35.92 252.82 36.64 251.092 37.184C249.364 37.728 247.732 38 246.196 38ZM244.18 24.176C246.132 23.472 247.764 22.576 249.076 21.488C250.388 20.4 251.044 19.472 251.044 18.704C251.044 17.808 250.42 17.2 249.172 16.88C247.956 17.776 246.916 18.848 246.052 20.096C245.22 21.344 244.596 22.704 244.18 24.176ZM278.046 31.664C281.054 31.536 283.838 29.984 286.398 27.008C287.966 27.296 289.214 27.888 290.142 28.784C291.102 29.68 291.582 30.816 291.582 32.192C291.582 33.184 291.006 34.128 289.854 35.024C288.734 35.92 287.326 36.64 285.63 37.184C283.934 37.728 282.302 38 280.734 38C279.198 38 277.598 37.504 275.934 36.512C274.27 35.488 272.894 34.24 271.806 32.768C270.718 31.296 270.174 29.904 270.174 28.592C270.174 26.064 270.75 23.424 271.902 20.672C273.086 17.888 274.718 15.568 276.798 13.712C278.878 11.856 281.214 10.928 283.806 10.928C285.406 10.928 286.926 11.216 288.366 11.792C289.806 12.368 290.958 13.136 291.822 14.096C292.686 15.056 293.118 16.048 293.118 17.072C293.118 18.064 292.686 18.96 291.822 19.76C290.958 20.528 289.822 20.912 288.414 20.912C287.966 20.912 287.502 20.864 287.022 20.768C286.222 18.816 285.342 17.44 284.382 16.64C282.27 18.016 280.67 19.936 279.582 22.4C278.494 24.864 277.95 27.376 277.95 29.936C277.95 30.32 277.982 30.896 278.046 31.664ZM326.844 30.944C328.796 29.984 330.444 28.96 331.788 27.872C333.196 28.352 334.236 29.024 334.908 29.888C335.612 30.72 335.964 31.68 335.964 32.768C335.964 33.536 335.42 34.336 334.332 35.168C333.244 35.968 331.948 36.64 330.444 37.184C328.94 37.728 327.66 38 326.604 38C325.868 38 325.02 37.728 324.06 37.184C323.132 36.64 322.316 36 321.612 35.264C320.94 34.528 320.604 33.952 320.604 33.536C320.604 33.216 320.732 32.784 320.988 32.24C321.276 31.696 321.58 31.136 321.9 30.56C322.22 29.984 322.428 29.6 322.524 29.408L321.324 28.736C319.628 31.52 317.996 33.76 316.428 35.456C314.892 37.152 313.372 38 311.868 38C310.844 38 309.756 37.552 308.604 36.656C307.484 35.76 306.524 34.672 305.724 33.392C304.956 32.112 304.572 30.976 304.572 29.984C304.572 27.136 305.164 24.224 306.348 21.248C307.532 18.272 309.18 15.808 311.292 13.856C313.436 11.904 315.852 10.928 318.54 10.928C319.5 10.928 320.476 11.36 321.468 12.224C322.46 13.088 323.1 13.968 323.388 14.864C323.548 14.16 323.772 13.552 324.06 13.04C324.38 12.496 324.716 12.224 325.068 12.224C325.9 12.224 326.812 12.528 327.804 13.136C328.828 13.712 329.692 14.4 330.396 15.2C331.1 15.968 331.452 16.576 331.452 17.024C331.42 17.632 331.164 18.64 330.684 20.048C330.236 21.456 329.5 23.6 328.476 26.48C327.868 28.048 327.324 29.536 326.844 30.944ZM312.108 31.328C314.7 29.728 316.956 27.76 318.876 25.424C320.796 23.056 322.108 20.448 322.812 17.6C321.948 17.216 321.132 17.024 320.364 17.024C318.86 17.024 317.516 17.696 316.332 19.04C315.148 20.384 314.204 22.144 313.5 24.32C312.796 26.496 312.332 28.832 312.108 31.328ZM355.653 38C354.789 38 353.845 37.728 352.821 37.184C351.797 36.608 350.917 35.952 350.181 35.216C349.445 34.448 349.077 33.808 349.077 33.296C349.077 32.688 349.205 31.904 349.461 30.944C349.717 29.952 350.101 28.672 350.613 27.104C351.125 25.472 351.509 24.176 351.765 23.216C352.021 22.224 352.149 21.424 352.149 20.816C352.149 20.56 352.005 20.288 351.717 20C351.429 19.712 350.981 19.328 350.373 18.848C349.669 18.272 349.157 17.824 348.837 17.504C348.517 17.184 348.357 16.864 348.357 16.544C348.357 15.872 348.677 15.088 349.317 14.192C349.957 13.296 350.709 12.528 351.573 11.888C352.437 11.248 353.173 10.928 353.781 10.928C354.453 10.928 355.221 11.232 356.085 11.84C356.949 12.448 357.701 13.152 358.341 13.952C358.981 14.72 359.301 15.312 359.301 15.728C359.301 16.944 359.061 18.544 358.581 20.528L359.157 20.816C359.893 19.632 360.693 18.224 361.557 16.592C362.453 14.928 362.997 13.904 363.189 13.52L364.101 11.792C366.309 11.728 367.957 12.128 369.045 12.992C370.133 13.856 370.677 15.008 370.677 16.448C370.677 17.856 370.213 19.264 369.285 20.672C366.981 21.44 365.013 22.208 363.381 22.976C361.781 23.712 360.165 24.592 358.533 25.616C358.437 29.168 358.149 32.128 357.669 34.496C357.221 36.832 356.549 38 355.653 38ZM392.738 21.872C395.266 18.544 397.218 16.112 398.594 14.576C399.97 13.008 401.09 12.224 401.954 12.224C402.562 12.224 403.266 12.48 404.066 12.992C404.898 13.504 405.602 14.096 406.178 14.768C406.786 15.408 407.074 15.92 407.042 16.304C407.01 17.104 406.898 17.968 406.706 18.896C406.514 19.824 406.242 20.96 405.89 22.304C408.546 18.912 410.626 16.384 412.13 14.72C413.666 13.056 414.866 12.224 415.73 12.224C416.338 12.224 417.074 12.528 417.938 13.136C418.802 13.744 419.538 14.448 420.146 15.248C420.786 16.016 421.106 16.608 421.106 17.024C421.074 17.568 420.85 18.496 420.434 19.808C420.018 21.12 419.426 22.864 418.658 25.04C417.634 27.856 416.978 29.76 416.69 30.752C417.714 30.208 418.498 29.76 419.042 29.408C419.618 29.024 420.29 28.512 421.058 27.872C422.466 28.352 423.522 29.024 424.226 29.888C424.93 30.72 425.282 31.68 425.282 32.768C425.282 33.536 424.722 34.336 423.602 35.168C422.514 35.968 421.218 36.64 419.714 37.184C418.21 37.728 416.93 38 415.874 38C415.17 38 414.338 37.712 413.378 37.136C412.418 36.56 411.586 35.904 410.882 35.168C410.178 34.4 409.826 33.808 409.826 33.392C409.826 33.136 409.986 32.528 410.306 31.568C410.626 30.576 410.834 29.904 410.93 29.552C411.538 27.632 411.986 26.112 412.274 24.992C412.594 23.84 412.754 22.992 412.754 22.448C412.754 22.064 412.674 21.872 412.514 21.872C411.17 21.872 408.786 24.112 405.362 28.592C405.106 29.52 404.866 30.688 404.642 32.096C404.258 34.144 403.922 35.648 403.634 36.608C403.346 37.536 402.962 38 402.482 38C401.81 38 400.978 37.712 399.986 37.136C398.994 36.56 398.13 35.904 397.394 35.168C396.658 34.4 396.29 33.776 396.29 33.296C396.29 32.976 396.642 31.728 397.346 29.552C397.922 27.728 398.37 26.24 398.69 25.088C399.01 23.904 399.17 23.024 399.17 22.448C399.17 22.064 399.074 21.872 398.882 21.872C397.602 21.872 395.218 24.112 391.73 28.592C391.602 29.104 391.458 29.744 391.298 30.512C391.17 31.28 391.074 31.824 391.01 32.144C390.658 34.032 390.322 35.488 390.002 36.512C389.714 37.504 389.33 38 388.85 38C388.018 38 387.074 37.728 386.018 37.184C384.994 36.608 384.098 35.952 383.33 35.216C382.594 34.448 382.226 33.808 382.226 33.296C382.226 32.72 382.434 31.872 382.85 30.752C383.266 29.632 383.89 28.096 384.722 26.144C385.362 24.64 385.842 23.472 386.162 22.64C386.482 21.776 386.642 21.168 386.642 20.816C386.642 20.56 386.482 20.288 386.162 20C385.874 19.68 385.426 19.296 384.818 18.848C384.114 18.304 383.586 17.872 383.234 17.552C382.914 17.232 382.754 16.896 382.754 16.544C382.754 15.872 383.058 15.088 383.666 14.192C384.306 13.296 385.042 12.528 385.874 11.888C386.738 11.248 387.474 10.928 388.082 10.928C388.754 10.928 389.522 11.232 390.386 11.84C391.282 12.448 392.05 13.152 392.69 13.952C393.362 14.72 393.698 15.312 393.698 15.728C393.698 16.496 393.602 17.44 393.41 18.56C393.25 19.68 393.026 20.784 392.738 21.872Z" fill="#6F5946"/>
</svg>
